<?xml version="1.0" encoding="UTF-8"?>
<svg xmlns="http://www.w3.org/2000/svg" version="1.1" xmlns:xlink="http://www.w3.org/1999/xlink" viewBox="0 0 1608.8 750.6">
  <defs>
    <style>
      .cls-1 {
        fill: #ebe9eb;
      }

      .cls-2 {
        fill: #3672e8;
      }

      .cls-3 {
        isolation: isolate;
      }

      .cls-4 {
        opacity: .3;
      }
    </style>
  </defs>
  <!-- Generator: Adobe Illustrator 28.7.1, SVG Export Plug-In . SVG Version: 1.2.0 Build 142)  -->
  <g>
    <g id="Layer_1">
      <g id="Layer_1-2" class="cls-4">
        <image class="cls-3" width="380" height="434" transform="translate(-38.2 13.4)" xlink:href="background-padel-1.png"/>
      </g>
      <g id="tennis_ball" class="cls-4">
        <path id="Path_85" class="cls-2" d="M1402.8,671.5c0,43.7-35.5,79.2-79.2,79.2s-79.2-35.5-79.2-79.2,35.4-79.2,79.2-79.2c43.7,0,79.2,35.5,79.2,79.2h0Z"/>
        <path id="Path_86" class="cls-1" d="M1334.3,593.1c-3.5-.5-7-.8-10.5-.8-10.1,36.3-41,63-78.4,67.8-.5,3.5-.8,7-.9,10.6h.4c42.8-5,78.2-35.7,89.3-77.3v-.3c0,0,0,0,0,0ZM1402.1,672.2c-38.1,9.4-67.6,39.4-76.4,77.7l-.2.7c3.7,0,7.3-.4,11-1,8.5-32.2,33.3-57.5,65.4-66.6.5-3.6.8-7.3.9-11l-.8.2h0Z"/>
      </g>
      <g id="tennis_ball-2" class="cls-4">
        <path id="Path_85-2" class="cls-2" d="M1500.8,71.5c0,23.8-19.3,43.2-43.2,43.2s-43.2-19.3-43.2-43.2,19.3-43.2,43.2-43.2,43.2,19.3,43.2,43.2h0Z"/>
        <path id="Path_86-2" class="cls-1" d="M1463.5,28.7c-1.9-.3-3.8-.4-5.7-.4-5.5,19.8-22.3,34.4-42.7,37-.3,1.9-.4,3.8-.5,5.8h.2c23.3-2.7,42.7-19.4,48.7-42.2h0c0-.1,0-.1,0-.1ZM1500.4,71.9c-20.8,5.1-36.9,21.5-41.6,42.3v.4c1.9,0,3.9-.2,5.9-.6,4.6-17.6,18.2-31.4,35.7-36.3.3-2,.4-4,.5-6h-.4Z"/>
      </g>
      <g id="tennis_ball-3" class="cls-4">
        <path id="Path_85-3" class="cls-2" d="M1608.8,555.5c0,18.3-14.8,33.2-33.2,33.2-18.3,0-33.2-14.8-33.2-33.2,0-18.3,14.8-33.2,33.2-33.2s33.2,14.8,33.2,33.2h0Z"/>
        <path id="Path_86-3" class="cls-1" d="M1580.1,522.6c-1.5-.2-2.9-.3-4.4-.3-4.2,15.2-17.2,26.4-32.8,28.4-.2,1.5-.3,3-.4,4.4h.2c17.9-2.1,32.8-14.9,37.4-32.4h0c0-.1,0-.1,0-.1ZM1608.5,555.8c-16,3.9-28.3,16.5-32,32.5v.3c1.5,0,3-.2,4.5-.4,3.6-13.5,14-24.1,27.4-27.9.2-1.5.3-3,.4-4.6h-.3c0,0,0,0,0,0Z"/>
      </g>
    </g>
  </g>
</svg>