<?xml version="1.0" encoding="UTF-8"?>
<svg xmlns="http://www.w3.org/2000/svg" version="1.1" viewBox="0 0 800 800">
  <defs>
    <style>
      .cls-1 {
        fill: #ebe9eb;
        stroke: #ebe9eb;
        stroke-miterlimit: 100;
        stroke-width: 5px;
      }
    </style>
  </defs>
  <!-- Generator: Adobe Illustrator 28.7.1, SVG Export Plug-In . SVG Version: 1.2.0 Build 142)  -->
  <g>
    <g id="Layer_1">
      <g id="SVGRepo_iconCarrier">
        <g id="Layer_2">
          <path class="cls-1" d="M712.5,350h-12.5V102.5c0-42.8-34.7-77.5-77.5-77.5h-62.5c-33-.1-59.9,26.5-60,59.5,0,.2,0,.3,0,.5v18.5c-44,11.4-74.9,51-75,96.5v25c0,13.8,11.2,25,25,25h150c13.8,0,25-11.2,25-25v-25c-.1-45.5-31-85.1-75-96.5v-18.5c0-5.5,4.5-10,10-10h62.5c15.1.1,27.4,12.4,27.5,27.5v247.5H87.5c-34.4-.2-62.4,27.4-62.7,61.8-.1,19.9,9.2,38.6,25.2,50.4v75c.2,69.5,44,131.3,109.5,154.5l-30.3,44.5c-7.5,11.5-4.4,26.9,7,34.5,4,2.8,8.8,4.3,13.7,4.3,8.4,0,16.2-4.3,20.7-11.3l42.8-63.7h373l42.7,63.7c4.6,7,12.4,11.2,20.8,11.3,4.9,0,9.7-1.4,13.7-4.3,11.4-7.6,14.5-23,7-34.5l-30.3-45.7c65.5-23.2,109.3-85,109.5-154.5v-75c26.9-21.4,31.4-60.5,10.1-87.5-11.5-14.6-29-23.2-47.6-23.5ZM575,200h-100c0-27.6,22.4-50,50-50s50,22.4,50,50ZM87.5,400h625c6.9,0,12.5,5.6,12.5,12.5s-5.6,12.5-12.5,12.5H87.5c-6.9,0-12.5-5.6-12.5-12.5s5.6-12.5,12.5-12.5ZM700,536c-.1,62.9-51.1,113.9-114,114H214c-62.9-.1-113.9-51.1-114-114v-61h600v61Z"/>
        </g>
      </g>
    </g>
  </g>
</svg>