<?xml version="1.0" encoding="UTF-8"?>
<svg xmlns="http://www.w3.org/2000/svg" version="1.1" viewBox="0 0 800 800">
  <defs>
    <style>
      .cls-1 {
        fill: #ebe9eb;
      }
    </style>
  </defs>
  <!-- Generator: Adobe Illustrator 28.7.1, SVG Export Plug-In . SVG Version: 1.2.0 Build 142)  -->
  <g>
    <g id="Layer_1">
      <g id="svg1011">
        <g id="SVGRepo_iconCarrier">
          <path id="path8428" class="cls-1" d="M79.9,753.3v-301.6c0-13.2-10.6-23.8-23.8-23.8H23.8c-21.7,0-32-26.5-16.3-41.2L383.7,35.5c9.2-8.5,23.4-8.5,32.4,0l376.2,351.1c15.9,14.7,5.4,41.2-16.3,41.2h-32.1c-13.2,0-23.8,10.6-23.8,23.8v301.6c0,13.2-10.6,23.8-23.8,23.8h-185.2c-13.2,0-23.8-10.6-23.8-23.8v-214.4c0-13.2-10.6-23.8-23.8-23.8h-127c-13.2,0-23.8,10.6-23.8,23.8v214.4c0,13.2-10.6,23.8-23.8,23.8H103.8c-13.2,0-23.8-10.6-23.8-23.8h-.1Z"/>
        </g>
      </g>
    </g>
  </g>
</svg>