<?xml version="1.0" encoding="UTF-8"?>
<svg xmlns="http://www.w3.org/2000/svg" version="1.1" viewBox="0 0 595.3 595.3">
  <defs>
    <style>
      .cls-1 {
        fill: #ebe9eb;
      }

      .cls-2 {
        fill: #3672e8;
      }
    </style>
  </defs>
  <!-- Generator: Adobe Illustrator 28.7.1, SVG Export Plug-In . SVG Version: 1.2.0 Build 142)  -->
  <g>
    <g id="Layer_1">
      <path class="cls-1" d="M429.9,44.7S252-88,182.1,125.6c0,0-20.1,81.6-8.8,176,0,0,.2,92.9-.5,97,0,0,2.7,13.9-36.2,67l-46.9,66.2s-26.9,21.9-20.8,30.2c0,0,9.3,13.3,19.6,20,10.3,6.7,26.4,9.3,26.4,9.3,10,1.9,18.5-31.7,18.5-31.7l40-70.6c34.1-58.4,45.4-61.2,45.4-61.2,5.4-3.6,87.7-41.6,87.7-41.6,90.6-29.1,155.7-82.6,155.7-82.6,163.5-154-32.1-258.8-32.1-258.8h-.1Z"/>
      <path class="cls-2" d="M270.6,97.1c8-1.9,16.8,3.6,18.6,11.9s-3.7,16.9-11.9,18.6-16.8-4.1-18.4-12.3c-1.6-7.7,3.9-16.2,11.6-18.1ZM251.5,167.3c-8.2,1.7-16.2-3.4-18.1-11.4-1.8-7.9,3.7-16.8,11.9-18.6,8.3-1.8,16.6,3.5,18.3,12.1,1.9,8.7-3.3,16.4-12,18h0ZM416.7,133.3c8.2-1.8,16.4,3.9,18.3,12.3,1.8,8.5-3.6,16.4-12.1,18.1-8,1.6-16.2-3.7-18-11.6-1.7-7.9,4-17.1,11.9-18.9h0ZM391.2,173.7c8-1.7,16.3,3.5,18.4,11.4,2.1,8-3.5,16.8-11.7,18.7-8.2,1.8-16.1-3.1-18-11.4-2.1-8.7,3-16.9,11.4-18.7ZM340.5,253.7c8.6-2.1,16.6,2.8,18.5,11.2,1.9,8.1-3.6,16.8-11.7,18.6-7.9,1.7-16.3-3.5-18.1-11.2-2.2-8.5,2.8-16.6,11.4-18.5h0ZM366.3,213.9c7.9-1.5,16.3,3.9,18.1,11.6,1.8,7.7-4.2,16.9-12,18.6-8.5,1.8-16.4-3.6-18.3-12.1-1.7-8.6,3.6-16.6,12.2-18.3h-.1ZM376.9,107.9c8.1-1.6,16.2,3.7,18.1,11.6,2.1,8.3-3.4,16.4-12.1,18.3-8.5,1.8-15.8-3-17.8-11.6-2.1-8.6,3.1-16.7,11.7-18.4h0ZM358,178.2c-8.6,2.1-16.6-3-18.4-11.6-1.8-8.2,3.6-17.1,11.7-18.6,7.5-1.5,16.4,4.1,18.4,11.6,2.1,7.7-3.6,16.8-11.7,18.6ZM325.4,188.4c8-1.9,16.9,3.6,18.7,11.6,1.9,8.1-3.7,16.7-12,18.5-8.1,1.7-16.1-3.1-18-11.4-1.9-8.5,3-16.9,11.4-18.7h-.1ZM306.4,258.8c-8.1,1.6-16.7-4.4-18.3-12.3-1.6-8.3,4.1-16.4,12.6-17.9,8.1-1.5,16.1,4,17.8,11.9,1.7,8.1-3.9,16.7-12.1,18.4ZM336.4,82.4c7.7-1.8,17.1,4.2,18.7,12.1,1.5,7.5-4.1,16.3-11.7,18.3-8.2,2.1-16.7-3.1-18.6-11.5-1.8-8.2,3.5-16.8,11.6-18.7h0ZM310.7,122.7c8.1-1.9,16.9,3.5,18.9,11.4,1.9,8.2-3.4,16.4-12,18.4-8.6,1.8-16.4-3.1-18.1-11.9-1.7-8,3.3-16,11.2-17.9h0ZM259.6,203c8.3-2.1,16.6,3.3,18.5,11.6s-3.3,16.6-11.7,18.4c-8.1,1.7-16.8-4-18.5-12-1.6-7.6,3.9-16.2,11.6-18h.1ZM285.5,162.5c7.7-1.7,16.3,3.7,18.1,11.6,2.2,8.3-3,16.6-11.4,18.5-8.6,2.1-16.7-3-18.6-11.5-1.7-7.9,4-16.9,11.9-18.6h0ZM412.7,269.8c-8.2,1.8-16.3-3.6-18.3-12.2-1.8-8.8,3-16.2,12-18,8.1-1.7,16.1,3.4,18,11.4,1.8,8-3.9,17.2-11.7,18.9h0ZM437.8,229.5c-7.9,1.6-16.3-3.6-18.3-11.5-1.9-8,3.5-16.8,11.6-18.7,8.5-1.9,16.7,3.3,18.5,11.6,1.8,8.2-3.6,16.8-12,18.5h.1Z"/>
    </g>
  </g>
</svg>