<?xml version="1.0" encoding="UTF-8"?>
<svg xmlns="http://www.w3.org/2000/svg" version="1.1" viewBox="0 0 800 800">
  <defs>
    <style>
      .cls-1 {
        fill: #ebe9eb;
      }
    </style>
  </defs>
  <!-- Generator: Adobe Illustrator 28.7.1, SVG Export Plug-In . SVG Version: 1.2.0 Build 142)  -->
  <g>
    <g id="Layer_1">
      <g id="Layer_2">
        <path class="cls-1" d="M109.7,643c-16.3,16.3-24.3,23.7-43,23.7v66.7c35-.4,68-16.1,90.3-43,16.3-16.3,24-23.7,43-23.7,19,0,27,7.3,43.3,23.7,5.2,6.5,11.1,12.4,17.6,17.6,49.9,40.2,122.9,32.3,163.1-17.6,16.3-16.3,24.3-23.7,43-23.7,18.7,0,26.7,7.3,43,23.7,22.2,26.9,55.1,42.6,90,43,35-.3,68-16.1,90.3-43,16.3-16.3,24.3-23.7,43-23.7v-66.7c-35,.3-68,16.1-90.3,43-16.3,16.3-24.3,23.7-43,23.7h0V166.7c.1-8.6,3.6-16.9,9.7-23,6.2-6.5,14.7-10.2,23.7-10.3,18.4,0,33.3,14.9,33.3,33.3v33.3s66.7,0,66.7,0v-33.3c0-55.2-44.8-100-100-100-26.7-.2-52.4,10.5-71,29.7-18.8,18.5-29.3,43.9-29,70.3v66.7h-266.7v-66.7c.1-8.6,3.6-16.9,9.7-23,6.2-6.5,14.7-10.2,23.7-10.3,18.4,0,33.3,14.9,33.3,33.3v33.3s66.7,0,66.7,0v-33.3c0-55.2-44.8-100-100-100-55.2,0-100,44.8-100,100v433.3c-35,.4-68,16.1-90.3,43ZM266.7,433.3h266.7v66.7h-266.7v-66.7ZM533.3,300v66.7h-266.7v-66.7h266.7ZM290.3,643c-7.4-7.7-15.3-14.8-23.7-21.3v-55h266.7v55c-19.1-14.5-42.6-22.2-66.7-21.7-35,.3-68,16.1-90.3,43-16.3,16.3-24.3,23.7-43,23.7-18.3,0-26.3-7.3-43-23.7Z"/>
      </g>
    </g>
  </g>
</svg>